<svg xmlns="http://www.w3.org/2000/svg" viewBox="0 0 1963.61 1066.93"><title>fyn-logo-no-point</title><path d="M1647.55,388.71c-6.15,42.28-12.23,84.15-18.39,126.49,4.11-1,7.81-1.78,11.48-2.71,9.21-2.34,18.52-4.23,27.82-6.16a27.55,27.55,0,0,1,9.67-.6c5.9.87,9.7,4.08,11.19,9.79a29.94,29.94,0,0,1-1.14,19.48c-2.69,6.51-7.71,10.22-14.59,11.6-14.86,3-29.74,5.86-44.5,9.35l-6.08,1.43c-1.48,8.57-2.7,17.13-4.56,25.58-3.86,17.57-9.19,34.62-18,50.41-9.75,17.45-23,31.41-41.1,40.3a82.44,82.44,0,0,1-30.86,8.1c-10.41.72-20.71.37-30.72-2.83-16.92-5.39-28.53-16.15-32.84-33.75-2.34-9.54-1.46-19.14.88-28.59,3.84-15.57,12.51-28.23,24-39.15,13.49-12.84,29.3-22.17,45.94-30.23a351,351,0,0,1,39.76-16.11,6.61,6.61,0,0,0,3.19-1.59c1.19-8.34,2.43-17,3.67-25.68l-.47-.19c-1.59,2.36-3.15,4.73-4.79,7.07-9.33,13.33-20.78,24.31-35.48,31.6-17.15,8.52-35.14,10.62-53.69,5.95-16.77-4.22-27.7-15.31-34.24-31-5.09-12.18-5.81-25-4.73-37.95,1.37-16.23,5.27-32,8.66-47.89,3.12-14.58,6.44-29.12,8.77-43.85a83.33,83.33,0,0,0,1.06-16.55,11.7,11.7,0,0,0-1.11-4.89,5.28,5.28,0,0,0-7.59-2.48A29.74,29.74,0,0,1,1450,367c-3.18.62-5.58,2.74-8,4.64-8.16,6.29-14.9,14-21.17,22.09-2,2.56-3.94,5.17-6.62,7.11-6.1,4.41-13.42,3.62-18.51-1.93-5.23-5.71-5.94-12.38-4.33-19.55a46,46,0,0,1,6.76-14.93c-16.81-1-33.06-1.2-49.61-1.26-2,24.17-4.17,48-6.65,71.95,5.57,0,11,.1,16.36,0,11.19-.24,22.37-.67,33.57-.44a32.32,32.32,0,0,1,7.47,1.17,16.3,16.3,0,0,1,12.55,15.35c.46,7-.62,13.66-5,19.45-4.52,5.94-10.7,8.76-17.94,9.49a85.91,85.91,0,0,1-8.65.36c-13.13,0-26.26,0-39.38,0a9,9,0,0,0-4.2.44c-1.13,4.39-1.44,9.06-2.14,13.66-2.43,16-6,31.65-12.86,46.42-12.19,26.33-33.08,40.43-61.58,43.88a94.51,94.51,0,0,1-33.37-1.42c-17.29-4.1-32.4-12.07-44-25.88-7.73-9.2-9.33-19.51-5.17-30.73a20.52,20.52,0,0,1,3.23-5.6c5-6.27,12.32-7.76,19.33-3.87a30.11,30.11,0,0,1,7.66,6.52c3.53,3.94,6.55,8.32,10.53,11.87,10.28,9.18,22.07,12.48,35.45,8.73,8.28-2.32,14.16-8,18.64-15.1,5.06-8.1,7.52-17.14,9.26-26.41,1.35-7.21,2.06-14.52,2.75-21.85-1.4-1.15-3-.62-4.53-.65-4-.1-7.93.1-11.82-1-9.41-2.76-14.78-10.12-14.37-19.94.31-7.25,2.35-13.73,8.41-18.36a21.79,21.79,0,0,1,12-4.3c3.72-.25,7.46-.17,11.19-.24a9.19,9.19,0,0,0,4.42-.7c2.57-23,4.75-46.25,6.81-69.66-2.78-.94-5.22.06-7.64.38-8.48,1.11-16.87,2.69-24.9,5.76l-.69.22c-18.89,7.17-18,22.62-12.71,34,.71,1.53,1.61,3,2.42,4.44,3.52,6.42,2.53,13-2.75,18.07-9.31,9-24.84,10-35.27,2.41a19.08,19.08,0,0,1-5.4-6.23c-11.24-20-11.18-52.45,7.06-71.94a78.36,78.36,0,0,1,27.27-18.51c17.87-7.56,36.68-11.38,55.84-13.81,23.23-2.95,46.57-3.47,69.93-3.19,24.2.28,48.36,1.42,72.38,4.55a18.61,18.61,0,0,0,8.49-.81,74.92,74.92,0,0,1,32.73-3.62c18.45,2.16,32,14.53,35.49,34.52,1.84,10.42,1.38,20.87.3,31.29-2.48,23.86-8.46,47.07-13.65,70.43-2.22,10-4.75,19.91-4,30.29a44.48,44.48,0,0,0,1.08,7.49c1.87,7.69,6.1,11,14.35,11.82,8.89.91,16.59-1.93,23.63-7.05,9.61-7,17-15.95,23.1-26,13.19-21.83,21.51-45.59,27.48-70.26,4.36-18,7.11-36.35,9.4-54.75a49.78,49.78,0,0,1,3.52-13.93c3.41-7.81,9.36-12.28,17.69-13.76a33,33,0,0,1,17.11,1.17c9,3.21,13.36,10.09,14.47,19.35.78,6.43-.14,12.72-1.12,19-.72,4.72-1.33,9.45-1.65,14.3A108.51,108.51,0,0,1,1664.14,353c13.93-16,30.11-28.73,51.34-33.61,8.27-1.9,16.64-2.63,25.07-1.14,13,2.31,21.56,10,26,22.31,3.24,9,3.57,18.36,3.22,27.79-.11,3.06,0,6.12,0,9.62,2.59-4.42,4.91-8.58,7.42-12.62,7.7-12.36,16.84-23.43,28.62-32.18,14.75-11,31.37-15.94,49.64-15.61,9.62.17,18.94,1.85,27.44,6.59,12.94,7.21,20,18.71,23.32,32.8,2.83,12,2.13,24.16.23,36.22-3.56,22.59-9.21,44.75-13.73,67.15-2.85,14.14-6.38,28.15-8.67,42.41a90.26,90.26,0,0,0-1.14,19.42c.76,13.84,9.74,18.65,21.46,16.85,7.32-1.13,13.07-5.27,18.47-10a156.84,156.84,0,0,0,15-15.61c2.56-2.95,5.38-5.57,9.32-6.49,7.77-1.83,14.52,2.94,15.9,11.7,1.78,11.34-.41,21.69-8.4,30.52-6.31,7-12.74,13.79-20.24,19.51-20.68,15.78-43.51,20.62-68.33,12.26-16.34-5.5-26.78-17.42-32.26-33.66-4.3-12.73-4-25.8-2.58-38.93,2.31-21.71,7.86-42.8,12.31-64.1,3.32-15.89,7.22-31.66,10.15-47.63a68.45,68.45,0,0,0,1.2-16.16c-.56-10.23-6.89-15.76-17.13-15.06a38.46,38.46,0,0,0-20,7.57c-10.71,7.63-18.67,17.67-25.18,28.92-12.51,21.6-20.8,44.9-27.29,68.87-6.71,24.76-11.2,50-14.7,75.37-1.08,7.85-2.17,15.7-4.55,23.33-2.92,9.39-9.16,14.34-18.85,15.23a39.46,39.46,0,0,1-15.71-1.46c-8.61-2.74-12.36-9.3-13.58-17.82s-.6-17.07.42-25.56c3-25,7.72-49.68,11.68-74.51q4.29-26.91,7.56-54c1.39-11.59,2.64-23.19,3.31-34.85a26.45,26.45,0,0,0-.61-7.89c-.76-3.09-2.65-4.37-5.84-4a22.22,22.22,0,0,0-7.82,2.64c-10.48,5.47-18.39,13.84-25.74,22.84-2.05,2.52-4,5.14-6.11,7.6-7.86,9.11-19.23,7.78-24.79-2.91C1649.05,392.93,1648.46,391,1647.55,388.71Zm-75.36,184.38a1.42,1.42,0,0,0-1.49,0,197.42,197.42,0,0,0-28.79,13.28c-9,5.19-17.47,11.12-24,19.39-5.16,6.52-8.2,13.82-7.86,22.29.27,7,4.55,12,11.41,13.36a28.8,28.8,0,0,0,14.58-1.31c9.57-3.13,16-9.94,21-18.29,7.26-12,10.87-25.36,13.6-39C1571.34,579.64,1572.36,576.39,1572.19,573.09Z" transform="translate(0 -317.42)"/><path d="M997.92,367.33c23.49,0,47.53-.21,71.31-.21l54.13,113.39H817c18.1-37.93,36-75.48,54-113.23,23.66,0,47.94.13,71.42.13ZM927,469.8h179.19l-13.56-28.53c-5.51,5.76-8.74,8.13-14.5,10.18a77,77,0,0,1-9.55,2.72c-14.29,3-28.77,3.35-43.23,2.22-14.3-1.11-28-4.78-40.39-12.29-10.39-6.28-18.59-15-26.32-24.13-4.63-5.49-9.16-11.06-14.48-15.9A32.88,32.88,0,0,0,930,396.24c-1-.24-2-.72-3,.16Zm-92.91,0c15.23,1.13,84.47.53,87-.69V395.26c-10.63,0-20.49,1.93-29.69,6.94-4.81,2.62-9,6.14-13.41,9.28a36.38,36.38,0,0,1-14.34,6.62c-1.68.31-3.47,0-5.44,1Zm183.63-91.35a20.19,20.19,0,0,0,1.06,5.47c2.63,8.32,9,12.52,16.77,15,12.06,3.93,24.59,3.56,37.06,3.65.34,0,.76-.2.86-1.4l-10.84-22.75Zm-96.37,10.95c0-3.78.33-7.3-.22-10.95h-43.5c-5.38,11.33-10.74,22.6-16.24,34.19a14.32,14.32,0,0,0,6.71-1.63c4.82-2.07,8.84-5.38,13-8.47a62.17,62.17,0,0,1,26.35-11.62C911.89,390.09,916.45,390.44,921.37,389.39Zm26.52-10.82,22.29,46.09c.84,1,1.5,1.79,2.23,2.55,14,14.68,31.56,21.64,51.31,23.73a163.15,163.15,0,0,0,37.8-.85,55.53,55.53,0,0,0,18.68-5.33c4.38-2.26,7.94-5.29,9-10.55l-12.49-26.15c-5.13,0-9.91,0-14.69,0-10.54-.12-21-1-30.94-4.81-9.42-3.61-15.77-10.11-18.18-20.1-.37-1.53-.29-3.17-1.25-4.7l-85,.13c.31,3.94-.4,7.59.46,11.38,11.3,1.55,19.57,8,26.74,16.11,3.94,4.49,7.69,9.14,11.55,13.71" transform="translate(0 -317.42)"/><path d="M965.16,421.81C994.65,402.59,999,406,998,378.44" transform="translate(0 -317.42)" style="fill:none;stroke:#000;stroke-miterlimit:10;stroke-width:5px"/><path d="M334.73,1265.3c12.17-31.91,2.54-68.63-26.81-89.27-23.5-16.53-49.28-19.26-75.64-7.47-25.31,11.33-40.13,31.33-43.76,58.89-3.91,29.74-14.75,127.12-18.3,156.9,26.1-16.09,110.44-67.65,136.54-83.74a46.53,46.53,0,0,0,4.58-3.16A74,74,0,0,0,334.73,1265.3Z" transform="translate(0 -317.42)" style="fill-rule:evenodd"/><path d="M82.26,1236.58H75.75a1.25,1.25,0,0,0-1.24,1.25v26.55c0,2.07-.9,4.64-4.63,4.64H54a2.61,2.61,0,0,1-2.61-2.61v-15.84a2.73,2.73,0,0,0-2.73-2.73H35.54a2.73,2.73,0,0,0-2.73,2.73v15.84A2.61,2.61,0,0,1,30.2,1269H14.27c-3.73,0-4.63-2.57-4.63-4.64v-26.55a1.25,1.25,0,0,0-1.24-1.25H1.89c-2.77,0-2.18-1.5-.28-3.46l37.18-37.22a4.47,4.47,0,0,1,6.57,0l37.17,37.21C84.43,1235.08,85,1236.58,82.26,1236.58Z" transform="translate(0 -317.42)" style="fill:#fff;fill-rule:evenodd"/></svg>