<svg xmlns="http://www.w3.org/2000/svg" viewBox="0 0 173 227.43"><title>Pont Active</title><path d="M139.55,16.2C116.05-.33,90.27-3.06,63.91,8.73,38.6,20.06,23.78,40.06,20.15,67.62,16.24,97.35,5.4,194.74,1.86,224.52,28,208.43,112.29,156.87,138.39,140.78a46.53,46.53,0,0,0,4.58-3.16,74,74,0,0,0,23.39-32.15C178.53,73.56,168.9,36.83,139.55,16.2Z" style="fill:#087e8b;stroke:#cdedf6;stroke-miterlimit:10;stroke-width:3px;fill-rule:evenodd"/><path d="M134.62,79h-6.5a1.23,1.23,0,0,0-1.24,1.24v26.56c0,2.06-.9,4.63-4.64,4.63H106.32a2.61,2.61,0,0,1-2.61-2.61V93A2.74,2.74,0,0,0,101,90.27H87.91A2.74,2.74,0,0,0,85.18,93v15.83a2.61,2.61,0,0,1-2.62,2.61H66.64c-3.73,0-4.63-2.57-4.63-4.63V80.26A1.24,1.24,0,0,0,60.77,79H54.26c-2.77,0-2.18-1.51-.28-3.47L91.16,38.33a4.78,4.78,0,0,1,3.28-1.44,4.72,4.72,0,0,1,3.28,1.44L134.9,75.54C136.8,77.51,137.4,79,134.62,79Z" style="fill:#f06543;stroke:#cdedf6;stroke-miterlimit:10;stroke-width:3px;fill-rule:evenodd"/></svg>