<svg xmlns="http://www.w3.org/2000/svg" viewBox="0 0 84.15 74.56"><title>logo-pin-house</title><path d="M82.26,42.13H75.75a1.24,1.24,0,0,0-1.24,1.24V69.93c0,2.06-.9,4.63-4.63,4.63H54A2.61,2.61,0,0,1,51.34,72V56.12a2.73,2.73,0,0,0-2.73-2.73H35.54a2.73,2.73,0,0,0-2.73,2.73V72a2.61,2.61,0,0,1-2.61,2.61H14.27c-3.73,0-4.63-2.57-4.63-4.63V43.37A1.24,1.24,0,0,0,8.4,42.13H1.89c-2.77,0-2.18-1.5-.28-3.47L38.79,1.45a4.45,4.45,0,0,1,6.57,0L82.53,38.66C84.43,40.63,85,42.13,82.26,42.13Z" style="fill:#fff;fill-rule:evenodd"/></svg>