<svg xmlns="http://www.w3.org/2000/svg" viewBox="0 0 2279.38 1384.35"><title>point</title><path d="M1647.55,388.71c-6.15,42.28-12.23,84.15-18.39,126.49,4.11-1,7.81-1.78,11.48-2.71,9.21-2.34,18.52-4.23,27.82-6.16a27.55,27.55,0,0,1,9.67-.6c5.9.87,9.7,4.08,11.19,9.79a29.94,29.94,0,0,1-1.14,19.48c-2.69,6.51-7.71,10.22-14.59,11.6-14.86,3-29.74,5.86-44.5,9.35l-6.08,1.43c-1.48,8.57-2.7,17.13-4.56,25.58-3.86,17.57-9.19,34.62-18,50.41-9.75,17.45-23,31.41-41.1,40.3a82.44,82.44,0,0,1-30.86,8.1c-10.41.72-20.71.37-30.72-2.83-16.92-5.39-28.53-16.15-32.84-33.75-2.34-9.54-1.46-19.14.88-28.59,3.84-15.57,12.51-28.23,24-39.15,13.49-12.84,29.3-22.17,45.94-30.23a351,351,0,0,1,39.76-16.11,6.61,6.61,0,0,0,3.19-1.59c1.19-8.34,2.43-17,3.67-25.68l-.47-.19c-1.59,2.36-3.15,4.73-4.79,7.07-9.33,13.33-20.78,24.31-35.48,31.6-17.15,8.52-35.14,10.62-53.69,5.95-16.77-4.22-27.7-15.31-34.24-31-5.09-12.18-5.81-25-4.73-37.95,1.37-16.23,5.27-32,8.66-47.89,3.12-14.58,6.44-29.12,8.77-43.85a83.33,83.33,0,0,0,1.06-16.55,11.7,11.7,0,0,0-1.11-4.89,5.28,5.28,0,0,0-7.59-2.48A29.74,29.74,0,0,1,1450,367c-3.18.62-5.58,2.74-8,4.64-8.16,6.29-14.9,14-21.17,22.09-2,2.56-3.94,5.17-6.62,7.11-6.1,4.41-13.42,3.62-18.51-1.93-5.23-5.71-5.94-12.38-4.33-19.55a46,46,0,0,1,6.76-14.93c-16.81-1-33.06-1.2-49.61-1.26-2,24.17-4.17,48-6.65,71.95,5.57,0,11,.1,16.36,0,11.19-.24,22.37-.67,33.57-.44a32.32,32.32,0,0,1,7.47,1.17,16.3,16.3,0,0,1,12.55,15.35c.46,7-.62,13.66-5,19.45-4.52,5.94-10.7,8.76-17.94,9.49a85.91,85.91,0,0,1-8.65.36c-13.13,0-26.26,0-39.38,0a9,9,0,0,0-4.2.44c-1.13,4.39-1.44,9.06-2.14,13.66-2.43,16-6,31.65-12.86,46.42-12.19,26.33-33.08,40.43-61.58,43.88a94.51,94.51,0,0,1-33.37-1.42c-17.29-4.1-32.4-12.07-44-25.88-7.73-9.2-9.33-19.51-5.17-30.73a20.52,20.52,0,0,1,3.23-5.6c5-6.27,12.32-7.76,19.33-3.87a30.11,30.11,0,0,1,7.66,6.52c3.53,3.94,6.55,8.32,10.53,11.87,10.28,9.18,22.07,12.48,35.45,8.73,8.28-2.32,14.16-8,18.64-15.1,5.06-8.1,7.52-17.14,9.26-26.41,1.35-7.21,2.06-14.52,2.75-21.85-1.4-1.15-3-.62-4.53-.65-4-.1-7.93.1-11.82-1-9.41-2.76-14.78-10.12-14.37-19.94.31-7.25,2.35-13.73,8.41-18.36a21.79,21.79,0,0,1,12-4.3c3.72-.25,7.46-.17,11.19-.24a9.19,9.19,0,0,0,4.42-.7c2.57-23,4.75-46.25,6.81-69.66-2.78-.94-5.22.06-7.64.38-8.48,1.11-16.87,2.69-24.9,5.76l-.69.22c-18.89,7.17-18,22.62-12.71,34,.71,1.53,1.61,3,2.42,4.44,3.52,6.42,2.53,13-2.75,18.07-9.31,9-24.84,10-35.27,2.41a19.08,19.08,0,0,1-5.4-6.23c-11.24-20-11.18-52.45,7.06-71.94a78.36,78.36,0,0,1,27.27-18.51c17.87-7.56,36.68-11.38,55.84-13.81,23.23-2.95,46.57-3.47,69.93-3.19,24.2.28,48.36,1.42,72.38,4.55a18.61,18.61,0,0,0,8.49-.81,74.92,74.92,0,0,1,32.73-3.62c18.45,2.16,32,14.53,35.49,34.52,1.84,10.42,1.38,20.87.3,31.29-2.48,23.86-8.46,47.07-13.65,70.43-2.22,10-4.75,19.91-4,30.29a44.48,44.48,0,0,0,1.08,7.49c1.87,7.69,6.1,11,14.35,11.82,8.89.91,16.59-1.93,23.63-7.05,9.61-7,17-15.95,23.1-26,13.19-21.83,21.51-45.59,27.48-70.26,4.36-18,7.11-36.35,9.4-54.75a49.78,49.78,0,0,1,3.52-13.93c3.41-7.81,9.36-12.28,17.69-13.76a33,33,0,0,1,17.11,1.17c9,3.21,13.36,10.09,14.47,19.35.78,6.43-.14,12.72-1.12,19-.72,4.72-1.33,9.45-1.65,14.3A108.51,108.51,0,0,1,1664.14,353c13.93-16,30.11-28.73,51.34-33.61,8.27-1.9,16.64-2.63,25.07-1.14,13,2.31,21.56,10,26,22.31,3.24,9,3.57,18.36,3.22,27.79-.11,3.06,0,6.12,0,9.62,2.59-4.42,4.91-8.58,7.42-12.62,7.7-12.36,16.84-23.43,28.62-32.18,14.75-11,31.37-15.94,49.64-15.61,9.62.17,18.94,1.85,27.44,6.59,12.94,7.21,20,18.71,23.32,32.8,2.83,12,2.13,24.16.23,36.22-3.56,22.59-9.21,44.75-13.73,67.15-2.85,14.14-6.38,28.15-8.67,42.41a90.26,90.26,0,0,0-1.14,19.42c.76,13.84,9.74,18.65,21.46,16.85,7.32-1.13,13.07-5.27,18.47-10a156.84,156.84,0,0,0,15-15.61c2.56-2.95,5.38-5.57,9.32-6.49,7.77-1.83,14.52,2.94,15.9,11.7,1.78,11.34-.41,21.69-8.4,30.52-6.31,7-12.74,13.79-20.24,19.51-20.68,15.78-43.51,20.62-68.33,12.26-16.34-5.5-26.78-17.42-32.26-33.66-4.3-12.73-4-25.8-2.58-38.93,2.31-21.71,7.86-42.8,12.31-64.1,3.32-15.89,7.22-31.66,10.15-47.63a68.45,68.45,0,0,0,1.2-16.16c-.56-10.23-6.89-15.76-17.13-15.06a38.46,38.46,0,0,0-20,7.57c-10.71,7.63-18.67,17.67-25.18,28.92-12.51,21.6-20.8,44.9-27.29,68.87-6.71,24.76-11.2,50-14.7,75.37-1.08,7.85-2.17,15.7-4.55,23.33-2.92,9.39-9.16,14.34-18.85,15.23a39.46,39.46,0,0,1-15.71-1.46c-8.61-2.74-12.36-9.3-13.58-17.82s-.6-17.07.42-25.56c3-25,7.72-49.68,11.68-74.51q4.29-26.91,7.56-54c1.39-11.59,2.64-23.19,3.31-34.85a26.45,26.45,0,0,0-.61-7.89c-.76-3.09-2.65-4.37-5.84-4a22.22,22.22,0,0,0-7.82,2.64c-10.48,5.47-18.39,13.84-25.74,22.84-2.05,2.52-4,5.14-6.11,7.6-7.86,9.11-19.23,7.78-24.79-2.91C1649.05,392.93,1648.46,391,1647.55,388.71Zm-75.36,184.38a1.42,1.42,0,0,0-1.49,0,197.42,197.42,0,0,0-28.79,13.28c-9,5.19-17.47,11.12-24,19.39-5.16,6.52-8.2,13.82-7.86,22.29.27,7,4.55,12,11.41,13.36a28.8,28.8,0,0,0,14.58-1.31c9.57-3.13,16-9.94,21-18.29,7.26-12,10.87-25.36,13.6-39C1571.34,579.64,1572.36,576.39,1572.19,573.09Z"/><path d="M1168.73,318.3c12.17-31.91,2.54-68.63-26.81-89.27-23.5-16.53-49.28-19.26-75.64-7.47-25.31,11.33-40.13,31.33-43.76,58.89-3.91,29.74-14.75,127.12-18.3,156.9,26.1-16.09,110.44-67.65,136.54-83.74a46.53,46.53,0,0,0,4.58-3.16A74,74,0,0,0,1168.73,318.3Zm-30.47-28.72h-6.51a1.25,1.25,0,0,0-1.24,1.25v26.55c0,2.07-.9,4.64-4.63,4.64H1110a2.61,2.61,0,0,1-2.61-2.61V303.57a2.73,2.73,0,0,0-2.73-2.73h-13.07a2.73,2.73,0,0,0-2.73,2.73v15.84a2.61,2.61,0,0,1-2.61,2.61h-15.93c-3.73,0-4.63-2.57-4.63-4.64V290.83a1.25,1.25,0,0,0-1.24-1.25h-6.51c-2.77,0-2.18-1.5-.28-3.46l37.18-37.22a4.47,4.47,0,0,1,6.57,0l37.17,37.21C1140.43,288.08,1141,289.58,1138.26,289.58Z" style="fill-rule:evenodd"/><path d="M997.92,367.33c23.49,0,47.53-.21,71.31-.21l54.13,113.39H817c18.1-37.93,36-75.48,54-113.23,23.66,0,47.94.13,71.42.13ZM927,469.8h179.19l-13.56-28.53c-5.51,5.76-8.74,8.13-14.5,10.18a77,77,0,0,1-9.55,2.72c-14.29,3-28.77,3.35-43.23,2.22-14.3-1.11-28-4.78-40.39-12.29-10.39-6.28-18.59-15-26.32-24.13-4.63-5.49-9.16-11.06-14.48-15.9A32.88,32.88,0,0,0,930,396.24c-1-.24-2-.72-3,.16Zm-92.91,0c15.23,1.13,84.47.53,87-.69V395.26c-10.63,0-20.49,1.93-29.69,6.94-4.81,2.62-9,6.14-13.41,9.28a36.38,36.38,0,0,1-14.34,6.62c-1.68.31-3.47,0-5.44,1Zm183.63-91.35a20.19,20.19,0,0,0,1.06,5.47c2.63,8.32,9,12.52,16.77,15,12.06,3.93,24.59,3.56,37.06,3.65.34,0,.76-.2.86-1.4l-10.84-22.75Zm-96.37,10.95c0-3.78.33-7.3-.22-10.95h-43.5c-5.38,11.33-10.74,22.6-16.24,34.19a14.32,14.32,0,0,0,6.71-1.63c4.82-2.07,8.84-5.38,13-8.47a62.17,62.17,0,0,1,26.35-11.62C911.89,390.09,916.45,390.44,921.37,389.39Zm26.52-10.82,22.29,46.09c.84,1,1.5,1.79,2.23,2.55,14,14.68,31.56,21.64,51.31,23.73a163.15,163.15,0,0,0,37.8-.85,55.53,55.53,0,0,0,18.68-5.33c4.38-2.26,7.94-5.29,9-10.55l-12.49-26.15c-5.13,0-9.91,0-14.69,0-10.54-.12-21-1-30.94-4.81-9.42-3.61-15.77-10.11-18.18-20.1-.37-1.53-.29-3.17-1.25-4.7l-85,.13c.31,3.94-.4,7.59.46,11.38,11.3,1.55,19.57,8,26.74,16.11,3.94,4.49,7.69,9.14,11.55,13.71"/><path d="M965.16,421.81C994.65,402.59,999,406,998,378.44" style="fill:none;stroke:#000;stroke-miterlimit:10;stroke-width:5px"/><path d="M1963.89,382.93c1.08-9.67,2.72-12.36,4.07-15,3.06-5.92,7.62-10.84,12-15.82,13.92-16,30.1-28.73,51.33-33.61,8.27-1.9,16.65-2.63,25.08-1.14,13,2.31,21.56,10,26,22.31,3.24,9,3.58,18.36,3.23,27.79-.12,3.06,0,6.12,0,9.62,2.59-4.42,4.91-8.58,7.43-12.62,7.69-12.36,16.83-23.43,28.61-32.18,14.76-11,31.37-15.94,49.64-15.61,9.62.17,18.94,1.86,27.44,6.59,13,7.21,20,18.71,23.32,32.8,2.83,12,2.13,24.16.23,36.23-3.56,22.58-9.21,44.75-13.72,67.14-2.86,14.15-6.38,28.15-8.68,42.41a91.55,91.55,0,0,0-1.14,19.42c.76,13.84,9.74,18.65,21.46,16.85,7.33-1.13,13.08-5.26,18.47-10a156.84,156.84,0,0,0,15-15.61c2.56-2.95,5.38-5.56,9.32-6.49,7.78-1.82,14.53,2.94,15.9,11.7,1.78,11.34-.41,21.69-8.39,30.52-6.31,7-12.74,13.79-20.24,19.51-20.68,15.78-43.52,20.62-68.34,12.27-16.33-5.5-26.77-17.42-32.25-33.66-4.3-12.74-4-25.81-2.58-38.94,2.3-21.71,7.85-42.8,12.31-64.1,3.32-15.89,7.21-31.66,10.14-47.63a68.46,68.46,0,0,0,1.21-16.16c-.56-10.23-6.89-15.76-17.14-15.06a38.58,38.58,0,0,0-20,7.57c-10.7,7.63-18.66,17.67-25.18,28.92-12.51,21.6-20.79,44.9-27.29,68.87-6.7,24.76-11.19,50-14.69,75.37-1.08,7.86-2.18,15.7-4.55,23.33-2.93,9.4-9.17,14.34-18.85,15.23a39.51,39.51,0,0,1-15.72-1.46c-8.61-2.74-12.36-9.3-13.58-17.82s-.59-17.07.42-25.56c3-25,7.72-49.68,11.68-74.51q4.29-26.91,7.56-54c1.39-11.59,2.65-23.19,3.32-34.85a26.69,26.69,0,0,0-.62-7.88c-.75-3.09-2.65-4.38-5.84-4a22,22,0,0,0-7.81,2.63c-10.48,5.48-18.4,13.84-25.74,22.85-2.06,2.51-4,5.13-6.11,7.59-7.87,9.11-19.24,7.78-24.8-2.91l0-.05a19.65,19.65,0,0,1-1.83-10.91Z" style="opacity:0.24"/><path d="M1897,585.12c9.67,1.08,12.36,2.72,15,4.07,5.92,3.06,10.83,7.62,15.82,11.95,16,13.92,28.72,30.1,33.61,51.34,1.9,8.27,2.63,16.64,1.14,25.07-2.31,13-10,21.56-22.32,26-9,3.24-18.35,3.57-27.79,3.22-3.05-.11-6.12,0-9.61,0,4.42,2.6,8.58,4.92,12.61,7.43,12.36,7.69,23.44,16.84,32.19,28.61,11,14.76,15.94,31.37,15.61,49.65-.17,9.61-1.86,18.94-6.59,27.44-7.21,12.94-18.71,20-32.8,23.31-12,2.83-24.16,2.14-36.23.23-22.58-3.56-44.75-9.21-67.14-13.72-14.15-2.85-28.16-6.38-42.42-8.68a91.42,91.42,0,0,0-19.41-1.14c-13.84.76-18.65,9.74-16.85,21.47,1.13,7.32,5.26,13.07,10,18.47a158,158,0,0,0,15.61,15c2.95,2.56,5.56,5.37,6.49,9.31,1.82,7.78-2.95,14.53-11.7,15.9-11.35,1.78-21.69-.41-30.52-8.39-7-6.31-13.79-12.74-19.51-20.24-15.78-20.68-20.63-43.51-12.27-68.33,5.5-16.34,17.42-26.78,33.66-32.26,12.73-4.3,25.81-4,38.94-2.58,21.71,2.31,42.8,7.86,64.1,12.31,15.89,3.32,31.66,7.22,47.63,10.14a68.46,68.46,0,0,0,16.16,1.21c10.23-.56,15.75-6.89,15.06-17.13a38.63,38.63,0,0,0-7.58-20c-7.62-10.7-17.66-18.66-28.91-25.18-21.6-12.5-44.9-20.79-68.87-27.28-24.77-6.71-50-11.2-75.37-14.7-7.86-1.08-15.7-2.18-23.33-4.55-9.4-2.93-14.35-9.16-15.23-18.85a39.33,39.33,0,0,1,1.46-15.72c2.74-8.6,9.3-12.36,17.81-13.58s17.08-.59,25.56.42c25,3,49.69,7.72,74.51,11.68q26.92,4.29,54,7.57c11.59,1.38,23.19,2.64,34.84,3.31a26.42,26.42,0,0,0,7.89-.62c3.09-.75,4.37-2.65,4-5.84a22.24,22.24,0,0,0-2.64-7.81c-5.47-10.48-13.83-18.4-22.84-25.74-2.52-2.06-5.14-4-7.6-6.11-9.11-7.86-7.77-19.24,2.91-24.79l.06,0a19.65,19.65,0,0,1,10.91-1.83Z" style="opacity:0.24"/><path d="M1376,585.12c9.66,1.08,12.35,2.72,15,4.07,5.92,3.06,10.84,7.62,15.82,11.95,16,13.92,28.73,30.1,33.61,51.34,1.91,8.27,2.63,16.64,1.14,25.07-2.31,13-10,21.56-22.31,26-9,3.24-18.36,3.57-27.79,3.22-3.06-.11-6.12,0-9.62,0,4.42,2.6,8.58,4.92,12.62,7.43,12.36,7.69,23.43,16.84,32.18,28.61,11,14.76,15.94,31.37,15.62,49.65-.18,9.61-1.86,18.94-6.6,27.44-7.21,12.94-18.71,20-32.8,23.31-12,2.83-24.16,2.14-36.22.23-22.59-3.56-44.75-9.21-67.15-13.72-14.14-2.85-28.15-6.38-42.41-8.68a91.52,91.52,0,0,0-19.42-1.14c-13.84.76-18.65,9.74-16.85,21.47,1.13,7.32,5.27,13.07,10,18.47a158,158,0,0,0,15.61,15c3,2.56,5.57,5.37,6.49,9.31,1.83,7.78-2.94,14.53-11.7,15.9-11.34,1.78-21.68-.41-30.52-8.39-7-6.31-13.78-12.74-19.51-20.24-15.78-20.68-20.62-43.51-12.26-68.33,5.5-16.34,17.42-26.78,33.66-32.26,12.73-4.3,25.8-4,38.93-2.58,21.71,2.31,42.8,7.86,64.1,12.31,15.89,3.32,31.66,7.22,47.63,10.14a68.46,68.46,0,0,0,16.16,1.21c10.23-.56,15.76-6.89,15.06-17.13a38.53,38.53,0,0,0-7.57-20c-7.63-10.7-17.67-18.66-28.92-25.18-21.6-12.5-44.9-20.79-68.87-27.28-24.76-6.71-50-11.2-75.37-14.7-7.85-1.08-15.7-2.18-23.33-4.55-9.39-2.93-14.34-9.16-15.23-18.85a39.51,39.51,0,0,1,1.46-15.72c2.74-8.6,9.3-12.36,17.82-13.58s17.07-.59,25.56.42c25,3,49.68,7.72,74.51,11.68q26.91,4.29,54,7.57c11.59,1.38,23.19,2.64,34.85,3.31a26.45,26.45,0,0,0,7.89-.62c3.09-.75,4.37-2.65,4-5.84a22.24,22.24,0,0,0-2.64-7.81c-5.47-10.48-13.84-18.4-22.84-25.74-2.52-2.06-5.14-4-7.6-6.11-9.11-7.86-7.78-19.24,2.91-24.79l0,0a19.68,19.68,0,0,1,10.92-1.83Z" style="opacity:0.24"/><path d="M1897,.11c9.67,1.09,12.36,2.73,15,4.07,5.92,3.07,10.83,7.63,15.82,12,16,13.93,28.72,30.11,33.61,51.34,1.9,8.27,2.63,16.64,1.14,25.07-2.31,13-10,21.56-22.32,26-9,3.24-18.35,3.57-27.79,3.22-3.05-.11-6.12,0-9.61,0,4.42,2.59,8.58,4.91,12.61,7.42,12.36,7.7,23.44,16.84,32.19,28.62,11,14.75,15.94,31.37,15.61,49.64-.17,9.62-1.86,18.94-6.59,27.44-7.21,12.94-18.71,20-32.8,23.32-12,2.83-24.16,2.13-36.23.23-22.58-3.56-44.75-9.21-67.14-13.73-14.15-2.85-28.16-6.38-42.42-8.67a90.13,90.13,0,0,0-19.41-1.14c-13.84.76-18.65,9.74-16.85,21.46,1.13,7.32,5.26,13.07,10,18.47a156.84,156.84,0,0,0,15.61,15c2.95,2.56,5.56,5.38,6.49,9.32,1.82,7.77-2.95,14.52-11.7,15.9-11.35,1.78-21.69-.41-30.52-8.4-7-6.31-13.79-12.74-19.51-20.24-15.78-20.68-20.63-43.51-12.27-68.33,5.5-16.34,17.42-26.77,33.66-32.26,12.73-4.3,25.81-4,38.94-2.58,21.71,2.31,42.8,7.86,64.1,12.31,15.89,3.32,31.66,7.22,47.63,10.15a68.45,68.45,0,0,0,16.16,1.2c10.23-.56,15.75-6.89,15.06-17.13a38.56,38.56,0,0,0-7.58-20c-7.62-10.71-17.66-18.67-28.91-25.18-21.6-12.51-44.9-20.8-68.87-27.29-24.77-6.71-50-11.2-75.37-14.7-7.86-1.08-15.7-2.17-23.33-4.55-9.4-2.92-14.35-9.16-15.23-18.85a39.28,39.28,0,0,1,1.46-15.71c2.74-8.61,9.3-12.36,17.81-13.58s17.08-.6,25.56.42c25,3,49.69,7.72,74.51,11.68q26.92,4.29,54,7.56c11.59,1.39,23.19,2.64,34.84,3.31a26.42,26.42,0,0,0,7.89-.61c3.09-.76,4.37-2.65,4-5.84a22.22,22.22,0,0,0-2.64-7.82c-5.47-10.48-13.83-18.39-22.84-25.74-2.52-2-5.14-4-7.6-6.11C1874,18.9,1875.35,7.53,1886,2l.06,0A19.65,19.65,0,0,1,1897,.11Z" style="opacity:0.24"/><path d="M1402,.11c9.66,1.09,12.35,2.73,15,4.07,5.92,3.07,10.84,7.63,15.82,12,16,13.93,28.73,30.11,33.61,51.34,1.91,8.27,2.63,16.64,1.14,25.07-2.31,13-10,21.56-22.31,26-9,3.24-18.36,3.57-27.79,3.22-3.06-.11-6.12,0-9.62,0,4.42,2.59,8.58,4.91,12.62,7.42,12.36,7.7,23.43,16.84,32.18,28.62,11,14.75,15.94,31.37,15.62,49.64-.18,9.62-1.86,18.94-6.6,27.44-7.21,12.94-18.71,20-32.8,23.32-12,2.83-24.16,2.13-36.22.23-22.59-3.56-44.75-9.21-67.15-13.73-14.14-2.85-28.15-6.38-42.41-8.67a90.22,90.22,0,0,0-19.42-1.14c-13.84.76-18.65,9.74-16.85,21.46,1.13,7.32,5.27,13.07,10,18.47a156.84,156.84,0,0,0,15.61,15c3,2.56,5.57,5.38,6.49,9.32,1.83,7.77-2.94,14.52-11.7,15.9-11.34,1.78-21.68-.41-30.52-8.4-7-6.31-13.78-12.74-19.51-20.24-15.78-20.68-20.62-43.51-12.26-68.33,5.5-16.34,17.42-26.77,33.66-32.26,12.73-4.3,25.8-4,38.93-2.58,21.71,2.31,42.8,7.86,64.1,12.31,15.89,3.32,31.66,7.22,47.63,10.15a68.45,68.45,0,0,0,16.16,1.2c10.23-.56,15.76-6.89,15.06-17.13a38.46,38.46,0,0,0-7.57-20c-7.63-10.71-17.67-18.67-28.92-25.18-21.6-12.51-44.9-20.8-68.87-27.29-24.76-6.71-50-11.2-75.37-14.7-7.85-1.08-15.7-2.17-23.33-4.55-9.39-2.92-14.34-9.16-15.23-18.85a39.46,39.46,0,0,1,1.46-15.71c2.74-8.61,9.3-12.36,17.82-13.58s17.07-.6,25.56.42c25,3,49.68,7.72,74.51,11.68q26.91,4.29,54,7.56c11.59,1.39,23.19,2.64,34.85,3.31a26.45,26.45,0,0,0,7.89-.61c3.09-.76,4.37-2.65,4-5.84a22.22,22.22,0,0,0-2.64-7.82c-5.47-10.48-13.84-18.39-22.84-25.74-2.52-2-5.14-4-7.6-6.11C1379,18.9,1380.29,7.53,1391,2l0,0A19.68,19.68,0,0,1,1402,.11Z" style="opacity:0.24"/><path d="M497.93,384.25c1.09-9.67,2.73-12.36,4.07-14.95,3.06-5.93,7.63-10.84,12-15.82,13.92-16,30.11-28.73,51.34-33.62,8.27-1.9,16.64-2.63,25.07-1.13,13,2.3,21.56,10,26,22.31,3.24,9,3.57,18.35,3.22,27.79-.11,3.05,0,6.12,0,9.62,2.6-4.42,4.92-8.58,7.43-12.62,7.7-12.36,16.84-23.43,28.62-32.19,14.75-11,31.37-15.94,49.64-15.61,9.62.17,18.94,1.86,27.44,6.6,12.94,7.2,20,18.7,23.31,32.79,2.83,12.05,2.14,24.17.24,36.23-3.57,22.59-9.21,44.75-13.73,67.15-2.85,14.14-6.38,28.15-8.67,42.41a90.18,90.18,0,0,0-1.14,19.42c.75,13.84,9.74,18.65,21.46,16.84,7.32-1.12,13.07-5.26,18.47-10a158,158,0,0,0,15-15.61c2.56-2.95,5.38-5.56,9.31-6.48,7.78-1.83,14.53,2.94,15.9,11.69,1.78,11.35-.41,21.69-8.39,30.52-6.31,7-12.74,13.79-20.24,19.51-20.68,15.78-43.51,20.63-68.33,12.27-16.34-5.5-26.78-17.42-32.26-33.66-4.3-12.73-4-25.81-2.58-38.94,2.31-21.71,7.86-42.8,12.31-64.09,3.32-15.9,7.22-31.66,10.15-47.64a69,69,0,0,0,1.2-16.16c-.56-10.23-6.89-15.75-17.13-15.06a38.63,38.63,0,0,0-20,7.58c-10.7,7.62-18.66,17.67-25.17,28.92-12.51,21.59-20.8,44.89-27.29,68.87-6.71,24.76-11.2,50-14.7,75.37-1.08,7.85-2.18,15.69-4.55,23.32-2.92,9.4-9.16,14.35-18.85,15.24a39.46,39.46,0,0,1-15.71-1.46c-8.61-2.75-12.36-9.31-13.59-17.82s-.59-17.08.43-25.56c3-25,7.71-49.69,11.67-74.51q4.3-26.91,7.57-54c1.39-11.6,2.64-23.19,3.31-34.85a26.75,26.75,0,0,0-.61-7.89c-.76-3.09-2.66-4.37-5.84-4a22.22,22.22,0,0,0-7.82,2.64c-10.48,5.47-18.4,13.84-25.74,22.84-2.05,2.52-4,5.14-6.11,7.6-7.86,9.11-19.23,7.78-24.79-2.91l0-.06a19.65,19.65,0,0,1-1.83-10.91Z" style="opacity:0.24"/><path d="M334.73,1265.3c12.17-31.91,2.54-68.63-26.81-89.27-23.5-16.53-49.28-19.26-75.64-7.47-25.31,11.33-40.13,31.33-43.76,58.89-3.91,29.74-14.75,127.12-18.3,156.9,26.1-16.09,110.44-67.65,136.54-83.74a46.53,46.53,0,0,0,4.58-3.16A74,74,0,0,0,334.73,1265.3Z" style="fill-rule:evenodd"/><path d="M82.26,1236.58H75.75a1.25,1.25,0,0,0-1.24,1.25v26.55c0,2.07-.9,4.64-4.63,4.64H54a2.61,2.61,0,0,1-2.61-2.61v-15.84a2.73,2.73,0,0,0-2.73-2.73H35.54a2.73,2.73,0,0,0-2.73,2.73v15.84A2.61,2.61,0,0,1,30.2,1269H14.27c-3.73,0-4.63-2.57-4.63-4.64v-26.55a1.25,1.25,0,0,0-1.24-1.25H1.89c-2.77,0-2.18-1.5-.28-3.46l37.18-37.22a4.47,4.47,0,0,1,6.57,0l37.17,37.21C84.43,1235.08,85,1236.58,82.26,1236.58Z" style="fill:#fff;fill-rule:evenodd"/></svg>